<svg xmlns="http://www.w3.org/2000/svg" version="1.1" xmlns:xlink="http://www.w3.org/1999/xlink" xmlns:svgjs="http://svgjs.dev/svgjs" width="1000" height="1000" viewBox="0 0 1000 1000"><rect width="1000" height="1000" fill="#7df75a"></rect><g transform="matrix(0.7,0,0,0.7,149.5757575757575,372.9130712514585)"><svg viewBox="0 0 396 144" data-background-color="#7df75a" preserveAspectRatio="xMidYMid meet" height="363" width="1000" xmlns="http://www.w3.org/2000/svg" xmlns:xlink="http://www.w3.org/1999/xlink"><defs></defs><g id="tight-bounds" transform="matrix(1,0,0,1,0.24000000000003752,0.020927744155727623)"><svg viewBox="0 0 395.5199999999999 143.95814451168854" height="143.95814451168854" width="395.5199999999999"><g><svg viewBox="0 0 728.4672645974177 265.141575012514" height="143.95814451168854" width="395.5199999999999"><g><rect width="14.195245825446513" height="265.141575012514" x="432.6803293859856" y="0" fill="#ffffff" opacity="1" stroke-width="0" stroke="transparent" fill-opacity="1" class="rect-o-0" data-fill-palette-color="primary" rx="1%" id="o-0" data-palette-color="#ffffff"></rect></g><g transform="matrix(1,0,0,1,0,0.6595561567475272)"><svg viewBox="0 0 395.52 263.82246269901896" height="263.82246269901896" width="395.52"><g><svg viewBox="0 0 395.52 263.82246269901896" height="263.82246269901896" width="395.52"><g><svg viewBox="0 0 395.52 157.40833200319233" height="157.40833200319233" width="395.52"><g transform="matrix(1,0,0,1,0,0)"><svg width="395.52" viewBox="4.519999980926514 -36.040000915527344 91.76000213623047 36.53000259399414" height="157.40833200319233" data-palette-color="#ffffff"><g class="undefined-text-0" data-fill-palette-color="primary" id="text-0"><path d="M14.23 0L6.18 0 6.23-2.54 14.23-2.54Q18.04-2.54 20.83-4.26 23.61-5.98 25.12-9.05 26.64-12.11 26.64-16.14L26.64-16.14 26.64-19.46Q26.64-23.58 25.12-26.61 23.61-29.64 20.86-31.31 18.12-32.98 14.45-32.98L14.45-32.98 6.03-32.98 6.03-35.55 14.45-35.55Q18.9-35.55 22.31-33.54 25.73-31.54 27.67-27.92 29.61-24.29 29.61-19.41L29.61-19.41 29.61-16.14Q29.61-11.25 27.67-7.63 25.73-4 22.27-2 18.8 0 14.23 0L14.23 0ZM7.52-35.55L7.52 0 4.52 0 4.52-35.55 7.52-35.55ZM63.52-19.68L63.52-15.87Q63.52-10.89 61.83-7.21 60.13-3.54 57.03-1.53 53.93 0.49 49.7 0.49L49.7 0.49Q45.58 0.49 42.45-1.53 39.33-3.54 37.58-7.21 35.84-10.89 35.84-15.87L35.84-15.87 35.84-19.68Q35.84-24.66 37.57-28.33 39.3-32.01 42.42-34.02 45.53-36.04 49.66-36.04L49.66-36.04Q53.88-36.04 56.99-34.02 60.1-32.01 61.81-28.33 63.52-24.66 63.52-19.68L63.52-19.68ZM60.54-15.87L60.54-19.73Q60.54-23.93 59.25-26.99 57.96-30.05 55.53-31.73 53.1-33.4 49.66-33.4L49.66-33.4Q46.31-33.4 43.88-31.73 41.45-30.05 40.15-26.99 38.84-23.93 38.84-19.73L38.84-19.73 38.84-15.87Q38.84-11.65 40.16-8.57 41.48-5.49 43.92-3.81 46.36-2.12 49.7-2.12L49.7-2.12Q53.17-2.12 55.59-3.81 58.01-5.49 59.27-8.57 60.54-11.65 60.54-15.87L60.54-15.87ZM93.28-11.08L96.28-11.08Q95.92-7.5 94.32-4.9 92.72-2.29 89.92-0.9 87.13 0.49 83.2 0.49L83.2 0.49Q79.17 0.49 76.17-1.51 73.16-3.52 71.5-7.13 69.84-10.74 69.84-15.53L69.84-15.53 69.84-20Q69.84-24.8 71.5-28.42 73.16-32.03 76.22-34.03 79.27-36.04 83.42-36.04L83.42-36.04Q87.23-36.04 89.97-34.67 92.72-33.3 94.32-30.7 95.92-28.1 96.28-24.44L96.28-24.44 93.28-24.44Q92.74-28.74 90.38-31.1 88.01-33.47 83.42-33.47L83.42-33.47Q80.12-33.47 77.77-31.8 75.41-30.13 74.13-27.11 72.85-24.1 72.85-20.04L72.85-20.04 72.85-15.53Q72.85-11.65 74.07-8.59 75.29-5.54 77.6-3.8 79.9-2.05 83.2-2.05L83.2-2.05Q86.35-2.05 88.45-3.06 90.55-4.08 91.72-6.09 92.89-8.11 93.28-11.08L93.28-11.08Z" fill="#ffffff" data-fill-palette-color="primary"></path></g></svg></g></svg></g><g transform="matrix(1,0,0,1,163.310208,194.56866138917798)"><svg viewBox="0 0 232.209792 69.253801309841" height="69.253801309841" width="232.209792"><g transform="matrix(1,0,0,1,0,0)"><svg width="232.209792" viewBox="2.5999999046325684 -34.25 116.34000396728516 34.70000076293945" height="69.253801309841" data-palette-color="#ffffff"><path d="M2.65-33.95L2.65-33.95Q3.65-33.9 5.1-33.85 6.55-33.8 7.85-33.8L7.85-33.8Q9.1-33.8 10.45-33.83 11.8-33.85 13.15-33.88 14.5-33.9 15.7-33.9L15.7-33.9Q19-33.9 21.5-33.25 24-32.6 25.43-31 26.85-29.4 26.85-26.55L26.85-26.55Q26.85-23.4 24.9-21.15 22.95-18.9 19.5-18.35L19.5-18.35Q22.3-18.2 24.5-17.32 26.7-16.45 28-14.65 29.3-12.85 29.3-9.85L29.3-9.85Q29.3-7.1 28.03-4.85 26.75-2.6 23.98-1.3 21.2 0 16.7 0L16.7 0Q15.2 0 13.23 0 11.25 0 9.22 0.03 7.2 0.05 5.45 0.08 3.7 0.1 2.6 0.15L2.6 0.15Q2.6-0.6 2.65-1.23 2.7-1.85 2.85-2.25L2.85-2.25Q4.2-2.35 4.95-2.78 5.7-3.2 6.03-4.25 6.35-5.3 6.35-7.3L6.35-7.3 6.35-27Q6.35-28.8 6.05-29.73 5.75-30.65 5-31.05 4.25-31.45 2.9-31.55L2.9-31.55Q2.75-32 2.7-32.65 2.65-33.3 2.65-33.95ZM11.15-31L11.85-32.05 11.85-7.2Q11.85-5.15 12.25-4.1 12.65-3.05 13.65-2.73 14.65-2.4 16.35-2.4L16.35-2.4Q19.75-2.4 21.4-4.2 23.05-6 23.05-9.15L23.05-9.15Q23.05-11.4 22.2-12.85 21.35-14.3 19.88-15.05 18.4-15.8 16.63-16.1 14.85-16.4 13.05-16.4L13.05-16.4 11.05-16.4 11.05-18.8 13.45-18.8Q16.45-18.8 18.07-19.68 19.7-20.55 20.35-21.98 21-23.4 21-25.05L21-25.05Q21-27.5 19.9-28.9 18.8-30.3 17.18-30.88 15.55-31.45 13.95-31.45L13.95-31.45Q13.25-31.45 12.63-31.35 12-31.25 11.15-31L11.15-31ZM34.45-33.95L34.45-33.95Q35.25-33.9 36.47-33.88 37.7-33.85 39.07-33.83 40.45-33.8 41.67-33.8 42.9-33.8 43.65-33.8L43.65-33.8 43.65-7.3Q43.65-5.4 44-4.35 44.35-3.3 45.35-2.9 46.35-2.5 48.1-2.5L48.1-2.5 47.8 0Q46.4 0 44.52 0 42.65 0 40.67 0.03 38.7 0.05 37.05 0.08 35.4 0.1 34.45 0.15L34.45 0.15Q34.45-0.6 34.5-1.23 34.55-1.85 34.7-2.25L34.7-2.25Q36.05-2.35 36.8-2.78 37.55-3.2 37.85-4.25 38.15-5.3 38.15-7.3L38.15-7.3 38.15-27Q38.15-28.8 37.85-29.73 37.55-30.65 36.8-31.05 36.05-31.45 34.7-31.55L34.7-31.55Q34.55-32 34.5-32.65 34.45-33.3 34.45-33.95ZM57.75-8.85L57.75-8.85Q58.65-8.65 59.27-8.35 59.9-8.05 60.4-7.6L60.4-7.6Q59.85-5.9 59.47-3.83 59.1-1.75 58.85 0.1L58.85 0.1Q57.8 0.05 56.07 0.05 54.35 0.05 52.22 0.03 50.1 0 47.8 0L47.8 0 48.1-2.5 48.5-2.5Q51.8-2.5 53.52-3.23 55.25-3.95 56.15-5.35 57.05-6.75 57.75-8.85ZM54.35-22.55L54.35-22.55Q54.3-21.3 54.27-19.88 54.25-18.45 54.25-17.05L54.25-17.05Q54.25-15.6 54.27-14.05 54.3-12.5 54.35-11.2L54.35-11.2Q53.6-11.2 52.97-11.28 52.35-11.35 51.75-11.5L51.75-11.5Q51.55-14 50.42-14.9 49.3-15.8 46.35-15.8L46.35-15.8 42.85-15.8 42.85-18.2 46.35-18.2Q49.35-18.2 50.47-19 51.6-19.8 51.65-22.15L51.65-22.15Q52.35-22.4 53-22.48 53.65-22.55 54.35-22.55ZM57.6-33.95L57.6-33.95Q57.7-32.85 57.85-31.35 58-29.85 58.2-28.43 58.4-27 58.65-25.9L58.65-25.9Q58.2-25.55 57.52-25.4 56.85-25.25 56-25.25L56-25.25Q55.85-26.85 55.15-28.28 54.45-29.7 52.77-30.63 51.1-31.55 48-31.55L48-31.55 42.45-31.55 43.6-33.8Q47.5-33.8 50.3-33.83 53.1-33.85 54.9-33.9 56.7-33.95 57.6-33.95ZM75.8 0.45L75.8 0.45Q72.7 0.45 70.25-0.4 67.8-1.25 65.34-2.7L65.34-2.7Q65.65-4.6 65.75-6.55 65.84-8.5 65.84-10L65.84-10Q66.5-10.2 67.4-10.28 68.3-10.35 69.05-10.35L69.05-10.35Q69.25-7.7 69.97-5.9 70.7-4.1 72.27-3.15 73.84-2.2 76.4-2.2L76.4-2.2Q79.7-2.2 81.12-3.65 82.55-5.1 82.55-7.15L82.55-7.15Q82.55-9.2 81.34-10.55 80.15-11.9 78.25-12.88 76.34-13.85 74.25-14.8 72.15-15.75 70.25-17.03 68.34-18.3 67.15-20.2 65.95-22.1 65.95-25.05L65.95-25.05Q65.95-28 67.25-30.05 68.55-32.1 70.87-33.18 73.2-34.25 76.34-34.25L76.34-34.25Q78.09-34.25 79.75-33.95 81.4-33.65 82.77-33.15 84.15-32.65 85-32.05L85-32.05Q85-30.5 85.05-28.55 85.09-26.6 85.3-25.3L85.3-25.3Q84.7-25.05 83.77-24.9 82.84-24.75 82.05-24.75L82.05-24.75Q81.55-27.6 80.75-29.1 79.95-30.6 78.82-31.18 77.7-31.75 76.2-31.75L76.2-31.75Q73.7-31.75 72.27-30.55 70.84-29.35 70.84-27.15L70.84-27.15Q70.84-25.05 72.05-23.65 73.25-22.25 75.15-21.25 77.05-20.25 79.17-19.25 81.3-18.25 83.22-17 85.15-15.75 86.34-13.9 87.55-12.05 87.55-9.25L87.55-9.25Q87.55-6.65 86.3-4.42 85.05-2.2 82.47-0.88 79.9 0.45 75.8 0.45ZM110.39-31.35L100.29-31.35Q97.99-31.35 96.77-30.6 95.54-29.85 94.97-28.48 94.39-27.1 94.04-25.2L94.04-25.2Q93.34-25.2 92.54-25.3 91.74-25.4 91.19-25.7L91.19-25.7Q91.59-27.8 91.82-30 92.04-32.2 92.04-33.95L92.04-33.95Q93.59-33.9 95.62-33.85 97.64-33.8 100.07-33.8 102.49-33.8 105.24-33.8L105.24-33.8Q107.99-33.8 110.44-33.8 112.89-33.8 114.97-33.85 117.04-33.9 118.49-33.95L118.49-33.95Q118.44-32.1 118.57-30.1 118.69-28.1 118.94-25.7L118.94-25.7Q118.34-25.45 117.62-25.3 116.89-25.15 116.04-25.2L116.04-25.2Q115.89-28.25 114.57-29.8 113.24-31.35 110.39-31.35L110.39-31.35ZM102.44-6.8L102.44-32.4 107.99-32.4 107.99-6.8Q107.99-5.05 108.29-4.1 108.59-3.15 109.47-2.75 110.34-2.35 112.04-2.25L112.04-2.25Q112.19-1.85 112.27-1.23 112.34-0.6 112.34 0.15L112.34 0.15Q110.74 0.05 108.94 0.03 107.14 0 105.29 0L105.29 0Q104.04 0 102.72 0.03 101.39 0.05 100.17 0.08 98.94 0.1 97.94 0.15L97.94 0.15Q97.94-0.6 98.02-1.23 98.09-1.85 98.24-2.25L98.24-2.25Q99.94-2.35 100.84-2.75 101.74-3.15 102.09-4.1 102.44-5.05 102.44-6.8L102.44-6.8Z" opacity="1" transform="matrix(1,0,0,1,0,0)" fill="#ffffff" class="undefined-text-1" data-fill-palette-color="secondary" id="text-1"></path></svg></g></svg></g></svg></g></svg></g><g transform="matrix(1,0,0,1,484.03590459741775,10.356328991706249)"><svg viewBox="0 0 244.43135999999996 244.4289170291015" height="244.4289170291015" width="244.43135999999996"><g><svg version="1.0" xmlns="http://www.w3.org/2000/svg" xmlns:xlink="http://www.w3.org/1999/xlink" x="0" y="0" viewBox="0 0 100 99.9990005493164" enable-background="new 0 0 100 99.999" xml:space="preserve" width="244.43135999999996" height="244.4289170291015" class="icon-icon-0" data-fill-palette-color="accent" id="icon-0"><polygon points="87.457,42.199 57.801,42.199 57.801,12.543 42.2,12.543 42.2,42.199 12.544,42.199 12.544,57.8 42.2,57.8 	42.2,87.456 57.801,87.456 57.801,57.8 87.457,57.8 " fill="#f5fd00" data-fill-palette-color="accent"></polygon><path d="M50 99.999C22.429 99.999 0 77.57 0 50 0 22.43 22.429 0 50 0c27.57 0 50 22.43 50 50C100 77.57 77.571 99.999 50 99.999L50 99.999zM50 5.4c-24.594 0-44.6 20.007-44.6 44.6 0 24.593 20.006 44.6 44.6 44.6 24.592 0 44.599-20.007 44.599-44.6C94.599 25.407 74.592 5.4 50 5.4L50 5.4z" fill="#f5fd00" data-fill-palette-color="accent"></path></svg></g></svg></g></svg></g></svg><rect width="395.5199999999999" height="143.95814451168854" fill="none" stroke="none" visibility="hidden"></rect></g></svg></g></svg>